<?xml version="1.0" encoding="UTF-8"?>
<!DOCTYPE svg PUBLIC "-//W3C//DTD SVG 1.1//EN" "http://www.w3.org/Graphics/SVG/1.1/DTD/svg11.dtd">
<svg xmlns="http://www.w3.org/2000/svg" version="1.1" width="1200px" height="1200px" style="shape-rendering:geometricPrecision; text-rendering:geometricPrecision; image-rendering:optimizeQuality; fill-rule:evenodd; clip-rule:evenodd" xmlns:xlink="http://www.w3.org/1999/xlink">
<g><path style="opacity:0.948" fill="#030201" d="M 578.5,294.5 C 658.714,290.02 720.214,321.353 763,388.5C 797.157,454.466 795.49,519.466 758,583.5C 755,587.833 752,592.167 749,596.5C 738.429,608.648 728.095,620.982 718,633.5C 694.257,668.07 682.59,706.403 683,748.5C 680.008,771.501 667.842,787.668 646.5,797C 642.261,798.413 637.928,799.413 633.5,800C 607.798,800.943 582.131,800.61 556.5,799C 535.77,792.604 521.937,779.104 515,758.5C 515.29,711.631 502.29,668.964 476,630.5C 466.708,618.873 457.041,607.539 447,596.5C 404.48,536.644 397.146,472.644 425,404.5C 457.037,341.224 508.204,304.557 578.5,294.5 Z M 521.5,714.5 C 532.112,725.81 545.112,732.976 560.5,736C 571.495,736.5 582.495,736.667 593.5,736.5C 593.5,754.167 593.5,771.833 593.5,789.5C 581.779,789.887 570.113,789.387 558.5,788C 540.484,782.65 529.318,770.817 525,752.5C 523.892,739.821 522.725,727.155 521.5,714.5 Z M 674.5,714.5 C 673.065,727.459 671.898,740.459 671,753.5C 666.265,771.235 655.099,782.735 637.5,788C 626.898,789.403 616.231,789.903 605.5,789.5C 605.5,771.833 605.5,754.167 605.5,736.5C 632.394,740.705 655.394,733.372 674.5,714.5 Z"/></g>
<g><path style="opacity:1" fill="#e7d474" d="M 674.5,714.5 C 655.394,733.372 632.394,740.705 605.5,736.5C 604.168,668.999 604.168,601.332 605.5,533.5C 620.942,526.696 636.442,520.029 652,513.5C 658.241,515.477 664.575,517.144 671,518.5C 675.749,518.414 677.415,516.08 676,511.5C 675.097,510.299 673.931,509.465 672.5,509C 664.68,506.042 656.68,504.375 648.5,504C 632.167,511.167 615.833,518.333 599.5,525.5C 583.167,518.333 566.833,511.167 550.5,504C 541.135,504.116 532.135,506.116 523.5,510C 521.178,516.68 523.512,519.347 530.5,518C 535.744,516.189 541.078,514.689 546.5,513.5C 562.527,520.183 578.527,526.849 594.5,533.5C 594.833,601.335 594.499,669.002 593.5,736.5C 582.495,736.667 571.495,736.5 560.5,736C 545.112,732.976 532.112,725.81 521.5,714.5C 515.726,681.331 503.226,650.997 484,623.5C 468.472,606.644 454.472,588.644 442,569.5C 422.278,533.215 415.278,494.549 421,453.5C 434.477,386.365 472.977,340.198 536.5,315C 599.588,295.01 657.588,304.676 710.5,344C 774.054,400.026 791.888,468.193 764,548.5C 758.219,562.733 750.885,576.067 742,588.5C 732.667,599.167 723.333,609.833 714,620.5C 693.431,648.649 680.264,679.982 674.5,714.5 Z"/></g>
<g><path style="opacity:0.846" fill="#000000" d="M 546.5,819.5 C 581.835,819.333 617.168,819.5 652.5,820C 656.213,821.691 657.379,824.525 656,828.5C 655.097,829.701 653.931,830.535 652.5,831C 617.167,831.667 581.833,831.667 546.5,831C 542.787,829.309 541.621,826.475 543,822.5C 544.145,821.364 545.312,820.364 546.5,819.5 Z"/></g>
<g><path style="opacity:0.914" fill="#000000" d="M 555.5,856.5 C 584.835,856.333 614.169,856.5 643.5,857C 648.792,859.52 649.459,862.853 645.5,867C 614.833,867.667 584.167,867.667 553.5,867C 549.644,862.717 550.31,859.217 555.5,856.5 Z"/></g>
<g><path style="opacity:0.847" fill="#000000" d="M 572.5,893.5 C 590.503,893.333 608.503,893.5 626.5,894C 630.213,895.691 631.379,898.525 630,902.5C 628.829,903.893 627.329,904.727 625.5,905C 608.167,905.667 590.833,905.667 573.5,905C 568.885,903.923 567.385,901.09 569,896.5C 570.145,895.364 571.312,894.364 572.5,893.5 Z"/></g>
</svg>
